<svg xmlns="http://www.w3.org/2000/svg" width="1361px" height="609px" viewBox="0 0 1361 609"><g fill="none" fill-rule="evenodd"><g opacity="0.8" transform="rotate(-7 4291.342 278.88)"><ellipse cx="63.5748792" cy="32.468367" fill="#CFDAE6" opacity="0.25" rx="21.7830479" ry="21.766008"/><ellipse cx="5.98746479" cy="13.8668601" fill="#CFDAE6" opacity="0.599999964" rx="5.2173913" ry="5.21330997"/><path fill="#CFDAE6" d="M38.1354514,88.3520215 C43.8984227,88.3520215 48.570234,83.6838647 48.570234,77.9254015 C48.570234,72.1669383 43.8984227,67.4987816 38.1354514,67.4987816 C32.3724801,67.4987816 27.7006688,72.1669383 27.7006688,77.9254015 C27.7006688,83.6838647 32.3724801,88.3520215 38.1354514,88.3520215 Z" opacity="0.45"/><path stroke="#CFDAE6" stroke-linecap="round" stroke-linejoin="round" stroke-width="1.73913043" d="M64.2775582,33.1704963 L119.185836,16.5654915"/><path stroke="#E0B4B7" stroke-dasharray="1.405357899873153,2.108036953469981" stroke-linecap="round" stroke-linejoin="round" stroke-width="0.702678964" d="M42.1431708,26.5002681 L7.71190162,14.5640702" opacity="0.7"/><path stroke="#BACAD9" stroke-dasharray="1.405357899873153,2.108036953469981" stroke-linecap="round" stroke-linejoin="round" stroke-width="0.702678964" d="M63.9262187,33.521561 L43.6721326,69.3250951"/><g fill="#CFDAE6" transform="rotate(30 60.031 230.21)"><ellipse cx="9.13482653" cy="9.12768076" opacity="0.45" rx="9.13482653" ry="9.12768076"/><path d="M18.2696531,18.2553615 C18.2696531,13.2142826 14.1798519,9.12768076 9.13482653,9.12768076 C4.08980114,9.12768076 0,13.2142826 0,18.2553615 L18.2696531,18.2553615 Z" transform="rotate(180 9.135 13.692)"/></g></g><g transform="rotate(-5 462.48 -1092.758)"><ellipse cx="29.1176471" cy="29.1402439" fill="#CFDAE6" opacity="0.25" rx="29.1176471" ry="29.1402439"/><ellipse cx="29.1176471" cy="29.1402439" fill="#CFDAE6" opacity="0.3" rx="21.5686275" ry="21.5853659"/><ellipse cx="179.019608" cy="138.146341" stroke="#CFDAE6" opacity="0.4" rx="23.7254902" ry="23.7439024"/><ellipse cx="29.1176471" cy="29.1402439" fill="#BACAD9" opacity="0.5" rx="10.7843137" ry="10.7926829"/><path fill="#BACAD9" d="M29.1176471,39.9329268 L29.1176471,18.347561 C23.1616351,18.347561 18.3333333,23.1796097 18.3333333,29.1402439 C18.3333333,35.1008781 23.1616351,39.9329268 29.1176471,39.9329268 Z"/><g fill="#E6A1A6" opacity="0.45" transform="translate(172 131)"><ellipse cx="7.01960784" cy="7.14634146" rx="6.47058824" ry="6.47560976"/><path d="M0.549019608,13.6219512 C4.12262681,13.6219512 7.01960784,10.722722 7.01960784,7.14634146 C7.01960784,3.56996095 4.12262681,0.670731707 0.549019608,0.670731707 L0.549019608,13.6219512 Z" transform="matrix(-1 0 0 1 7.569 0)"/></g><ellipse cx="218.382353" cy="138.685976" fill="#CFDAE6" rx="1.61764706" ry="1.61890244"/><ellipse cx="179.558824" cy="175.381098" fill="#E0B4B7" opacity="0.35" rx="1.61764706" ry="1.61890244"/><ellipse cx="180.098039" cy="102.530488" fill="#E0B4B7" opacity="0.35" rx="2.15686275" ry="2.15853659"/><path stroke="#CFDAE6" d="M28.9985381,29.9671598 L171.151018,132.876024" opacity="0.8"/></g><g opacity="0.799999952" transform="rotate(-11 517.26 -5290.613)"><ellipse cx="43.8135593" cy="32" stroke="#CFDAE6" stroke-width="0.941176471" rx="11.1864407" ry="11.2941176"/><g fill="#BACAD9" transform="translate(34.597 23.111)"><ellipse cx="9.18534718" cy="8.88888889" opacity="0.45" rx="8.47457627" ry="8.55614973"/><path d="M9.18534718,17.4450386 C13.8657264,17.4450386 17.6599235,13.6143199 17.6599235,8.88888889 C17.6599235,4.16345787 13.8657264,0.332739156 9.18534718,0.332739156 L9.18534718,17.4450386 Z"/></g><path stroke="#CFDAE6" stroke-width="0.941176471" d="M34.6597385,24.809694 L5.71666084,4.76878945"/><ellipse cx="3.26271186" cy="3.29411765" stroke="#CFDAE6" stroke-width="0.941176471" rx="3.26271186" ry="3.29411765"/><ellipse cx="2.79661017" cy="61.1764706" fill="#F7E1AD" rx="2.79661017" ry="2.82352941"/><path stroke="#CFDAE6" stroke-width="0.941176471" d="M34.6312443,39.2922712 L5.06366663,59.785082"/></g><g opacity="0.33" transform="rotate(-10 2530.52 -6239.949)"><g fill="#BACAD9" transform="rotate(-85 127.141 -12.32)"><circle cx="11.6666667" cy="11.6666667" r="11.6666667" opacity="0.45"/><path d="M23.3333333,23.3333333 C23.3333333,16.8900113 18.1099887,11.6666667 11.6666667,11.6666667 C5.22334459,11.6666667 0,16.8900113 0,23.3333333 L23.3333333,23.3333333 Z" transform="rotate(180 11.667 17.5)"/></g><circle cx="201.833333" cy="87.5" r="5.83333333" fill="#CFDAE6"/><path stroke="#BACAD9" stroke-width="1.16666667" d="M143.5 88.8126685 155.070501 17.6038544M17.5 37.3333333 127.466252 97.6449735"/><path stroke="#CFDAE6" stroke-width="1.16666667" d="M143.902597 120.302281 174.935455 231.571342 38.5 147.510847 126.366941 110.833333"/><path stroke="#E0B4B7" stroke-width="1.16666667" d="M159.833333,99.7453842 L195.416667,89.25" opacity="0.6"/><path stroke="#BACAD9" stroke-width="1.16666667" d="M205.333333,82.1372105 L238.719406,36.1666667"/><path stroke="#CFDAE6" stroke-width="1.16666667" d="M266.723424,132.231988 L207.083333,90.4166667"/><circle cx="156.916667" cy="8.75" r="8.75" fill="#C1D1E0"/><circle cx="39.0833333" cy="148.75" r="5.25" fill="#C1D1E0"/><circle cx="8.75" cy="33.25" r="8.75" fill="#D1DEED" fill-opacity="0.6"/><circle cx="243.833333" cy="30.3333333" r="5.83333333" fill="#D1DEED" fill-opacity="0.6"/><circle cx="175.583333" cy="232.75" r="5.25" fill="#E0B4B7"/></g></g></svg>